<?xml version="1.0" standalone="no"?>
<!DOCTYPE svg PUBLIC "-//W3C//DTD SVG 20010904//EN"
 "http://www.w3.org/TR/2001/REC-SVG-20010904/DTD/svg10.dtd">
<svg version="1.0" xmlns="http://www.w3.org/2000/svg"
 width="600.000000pt" height="600.000000pt" viewBox="0 0 600.000000 600.000000"
 preserveAspectRatio="xMidYMid meet">
<metadata>
Created by potrace 1.14, written by Peter Selinger 2001-2017
</metadata>
<g transform="translate(0.000000,600.000000) scale(0.100000,-0.100000)"
fill="#000000" stroke="none">
<path d="M3515 5975 l30 -26 -90 6 c-49 4 -119 8 -155 9 -36 2 -100 9 -143 16
-78 12 -121 7 -56 -7 l34 -7 -35 -8 c-19 -5 -87 -11 -150 -14 l-115 -6 19 21
c17 18 17 21 3 21 -9 0 -33 -25 -53 -55 -20 -30 -39 -55 -42 -55 -3 0 -2 25 1
55 3 30 3 55 -1 55 -13 -1 -44 -52 -46 -75 -2 -35 -26 -10 -26 27 0 43 -15 26
-36 -42 -23 -72 -46 -86 -130 -76 -70 8 -170 56 -166 79 2 12 -2 15 -14 10
-11 -4 -15 -2 -11 4 4 6 0 13 -8 17 -8 3 -15 15 -15 26 0 34 -18 13 -34 -38
-8 -26 -15 -40 -16 -32 -9 90 -35 97 -33 9 2 -45 0 -49 -12 -33 -7 11 -11 22
-9 26 3 4 -3 5 -12 1 -13 -5 -16 -2 -12 8 4 10 -1 15 -12 16 -13 1 -19 -8 -24
-36 -4 -24 -20 -52 -46 -81 -27 -29 -40 -53 -40 -71 0 -15 -5 -31 -11 -34 -12
-8 -89 40 -89 56 0 5 -4 8 -9 5 -5 -3 -12 4 -16 17 l-8 22 -4 -22 c-2 -13 -9
-23 -15 -23 -7 0 -8 -17 -4 -50 l7 -50 -40 0 c-22 0 -43 5 -46 10 -3 6 -14 10
-25 10 -34 0 -40 -55 -13 -116 9 -22 16 -42 15 -47 -1 -4 3 -6 9 -5 6 2 14 -3
16 -9 3 -7 0 -13 -7 -13 -29 0 -130 -168 -149 -250 -8 -29 -9 -31 -11 -10 -1
23 -2 23 -10 5 -12 -27 -12 -47 -1 -41 5 4 7 -3 4 -15 -3 -11 -17 -25 -32 -30
-23 -9 -24 -11 -9 -20 10 -6 40 -13 68 -16 48 -5 49 -6 35 -27 -8 -11 -15 -27
-15 -36 0 -8 -11 -37 -25 -65 -37 -76 -31 -110 11 -64 10 12 35 30 56 40 l36
18 -5 -39 c-4 -26 -2 -40 6 -40 6 0 11 -8 11 -18 0 -10 13 -32 30 -50 16 -18
30 -36 30 -40 0 -4 9 -13 19 -19 16 -10 20 -9 24 8 3 10 2 17 -3 14 -11 -7
-17 35 -9 65 6 23 7 23 14 6 13 -31 43 -56 60 -50 13 5 15 -10 15 -108 0 -77
-4 -118 -12 -127 -10 -11 -10 -12 -1 -7 8 4 15 -3 19 -21 13 -60 28 -99 50
-132 28 -41 22 -63 -15 -55 -14 4 -33 13 -42 20 -20 18 -26 18 -33 -2 -3 -8
-2 -12 4 -9 6 3 10 2 10 -2 0 -9 52 -34 95 -47 13 -4 28 -27 44 -68 25 -66 25
-76 -3 -223 -20 -103 -21 -306 -2 -361 47 -132 122 -261 236 -399 52 -64 94
-123 94 -131 -1 -7 2 -12 6 -9 5 3 25 -18 44 -47 20 -29 58 -77 85 -105 39
-42 55 -53 81 -53 17 0 45 -7 61 -16 l30 -15 -58 -67 c-32 -37 -79 -92 -105
-122 -46 -55 -163 -175 -210 -217 -28 -25 -32 -42 -47 -173 -23 -201 -99 -465
-155 -535 -10 -13 -15 -15 -16 -6 0 9 -6 6 -17 -7 -10 -12 -51 -47 -91 -80
l-73 -59 -87 25 c-184 50 -279 64 -402 58 -63 -4 -144 -13 -180 -21 -73 -16
-106 -18 -75 -5 27 12 7 12 -31 1 -29 -8 -35 -5 -79 39 -39 39 -60 51 -122 70
l-74 22 -39 -27 c-27 -19 -45 -42 -61 -81 -21 -54 -22 -57 -5 -130 19 -87 21
-128 5 -119 -6 4 -9 0 -7 -9 2 -10 -12 -24 -39 -38 -61 -33 -150 -110 -157
-135 -4 -15 -11 -20 -26 -16 -33 9 -65 -5 -101 -42 -19 -19 -46 -40 -61 -46
-42 -17 -62 -71 -66 -174 -3 -83 -2 -92 20 -115 35 -39 58 -77 58 -99 0 -53
25 -122 57 -156 18 -19 33 -40 33 -45 0 -6 4 -10 10 -10 5 0 7 6 4 14 -5 12 1
13 34 4 38 -9 40 -12 51 -66 6 -30 11 -74 11 -96 0 -46 27 -97 40 -76 6 9 17
6 42 -14 19 -14 39 -26 45 -26 22 0 43 -38 43 -78 0 -22 5 -63 10 -89 10 -44
15 -50 53 -67 61 -27 172 -56 175 -47 4 11 94 2 106 -10 6 -5 894 -9 2053 -9
l2044 0 -6 34 c-5 22 -2 44 9 62 l15 29 1 -25 c0 -14 4 -31 9 -38 15 -24 17
16 11 263 -3 132 -2 258 1 280 l6 40 2 -42 c1 -42 16 -57 27 -28 4 9 -6 71
-21 138 -20 90 -30 166 -36 292 -9 187 -22 303 -46 410 -8 38 -16 92 -18 120
-2 52 -47 189 -71 215 -16 19 -37 77 -69 190 -46 165 -125 360 -183 454 -32
50 -83 134 -114 186 l-57 95 -7 134 -7 134 -47 44 c-42 39 -50 52 -79 150 -18
60 -41 135 -52 167 -10 33 -19 70 -19 83 0 28 -31 49 -95 62 -98 20 -160 33
-182 37 -21 4 -23 10 -22 62 1 43 3 51 9 32 8 -24 8 -23 9 8 1 17 4 32 9 32 4
0 13 9 19 20 11 16 10 22 -8 39 -17 15 -19 26 -14 51 4 19 12 30 19 27 9 -4
12 11 10 56 -3 65 12 102 63 158 28 30 28 36 6 42 -17 4 -17 5 0 6 9 0 17 5
17 10 0 5 9 7 20 4 23 -6 26 8 8 36 -9 15 -9 26 -1 44 9 20 8 29 -5 48 -21 30
-24 80 -7 99 7 8 32 87 55 175 23 88 55 201 71 250 22 64 29 100 25 125 -8 43
-8 54 0 107 6 44 -13 107 -61 203 -14 27 -25 58 -25 69 0 38 -51 172 -95 251
-25 45 -38 81 -32 83 16 5 0 37 -18 37 -9 0 -25 9 -37 20 -12 11 -16 20 -10
20 19 0 -18 68 -40 73 -11 3 -16 11 -13 19 4 9 -4 19 -20 26 -23 11 -25 16
-19 54 l5 43 -25 -30 -26 -30 0 32 c0 17 -7 39 -16 48 -15 14 -17 14 -30 -2
-22 -29 -17 2 12 68 14 34 23 64 20 67 -8 7 -7 7 -36 -58 -13 -30 -28 -59 -33
-65 -10 -12 2 89 15 124 5 13 6 26 4 29 -7 6 -36 -18 -36 -30 0 -5 -11 -24
-25 -42 -14 -18 -25 -38 -25 -44 0 -24 -22 -22 -58 6 -52 42 -210 113 -216 99
-3 -9 -5 -8 -5 1 -1 15 -21 16 -21 1 0 -6 14 -27 30 -46 40 -45 38 -62 -2 -24
-18 17 -37 31 -41 31 -4 0 -25 11 -45 25 -20 14 -46 25 -57 25 -17 0 -16 -3
10 -25z m-587 -783 c6 -9 12 -28 12 -43 0 -15 5 -31 10 -34 6 -4 17 -22 25
-41 8 -19 28 -42 45 -52 17 -9 28 -23 25 -30 -3 -7 0 -10 5 -7 6 3 10 -1 10
-10 0 -10 5 -13 12 -9 7 5 8 3 4 -5 -5 -7 0 -18 10 -26 11 -8 14 -15 7 -15
-18 0 -5 -32 24 -56 14 -12 26 -33 26 -46 2 -18 6 -24 17 -20 11 4 11 0 -3
-14 -11 -12 -20 -15 -25 -9 -4 6 -15 10 -24 11 -10 0 -41 1 -70 2 -58 2 -60
14 -1 14 28 0 33 2 18 8 -11 4 -23 6 -27 3 -4 -2 -27 2 -50 10 -53 18 -178 12
-178 -8 0 -14 -15 -21 -63 -29 -16 -3 -25 -1 -22 5 4 5 1 9 -4 9 -6 0 -11 -4
-11 -9 0 -15 -32 -22 -47 -9 -11 9 -13 9 -11 -1 4 -17 -80 -43 -112 -34 -14 3
-28 6 -32 5 -5 -1 -8 5 -8 14 0 8 -4 12 -10 9 -5 -3 -10 -1 -10 5 0 6 -5 8
-11 5 -6 -4 -8 -13 -5 -21 3 -8 0 -14 -7 -13 -42 5 -53 -19 -29 -64 10 -17 22
-41 26 -52 7 -18 5 -18 -17 3 -13 12 -26 22 -30 22 -9 0 -9 -33 1 -46 4 -6
-10 8 -31 30 -40 43 -41 54 -21 160 11 54 -12 18 -26 -41 -8 -32 -15 -50 -18
-40 -2 9 -7 15 -11 12 -17 -10 12 -110 38 -132 31 -28 42 -21 14 10 -23 25
-36 47 -29 47 2 0 19 -19 37 -41 36 -46 41 -89 13 -117 -13 -13 -17 -13 -25
-1 -6 10 -9 10 -9 2 0 -9 -15 -13 -43 -13 -46 0 -73 24 -56 51 11 18 11 32 0
25 -5 -4 -11 -3 -14 1 -2 5 -3 3 -1 -3 6 -26 -12 -32 -36 -13 -21 17 -22 19
-3 10 29 -15 33 -14 27 4 -4 8 -10 12 -15 9 -5 -3 -9 20 -9 51 0 61 -17 144
-33 160 -6 7 -7 -3 -2 -30 12 -67 16 -143 6 -120 -5 11 -7 23 -4 28 2 4 0 7
-5 7 -4 0 -18 9 -30 20 l-22 21 -9 -25 c-21 -52 -31 -38 -31 42 0 78 1 80 33
104 17 14 59 38 92 53 33 16 62 33 63 37 2 5 8 5 13 2 5 -3 26 4 45 15 19 12
42 21 50 21 8 0 14 4 14 10 0 5 7 6 17 3 10 -4 14 -2 10 4 -8 13 20 26 35 16
7 -3 8 -1 4 5 -8 14 -82 16 -90 3 -3 -5 -20 -14 -38 -20 l-32 -11 30 32 c17
18 34 41 37 51 4 9 14 16 24 16 17 -1 17 -2 1 -6 -10 -2 -18 -9 -18 -14 0 -5
11 -7 25 -3 15 4 25 2 25 -5 0 -6 -5 -11 -12 -11 -6 0 -8 -3 -5 -6 4 -4 13 -1
22 6 9 8 15 8 15 2 0 -6 9 -14 20 -17 15 -5 19 -12 14 -31 -8 -33 10 -31 26 4
l13 27 20 -45 c21 -47 36 -40 19 9 -7 21 -7 28 1 28 51 -1 77 4 71 14 -5 9 25
10 116 6 73 -3 117 -1 109 4 -8 5 -39 9 -69 10 -62 1 -156 15 -125 19 11 1 26
2 33 1 7 -1 12 9 12 26 0 21 3 24 12 15 18 -18 27 -15 21 7 -3 10 1 22 8 27 9
5 10 2 6 -10 -4 -9 -3 -15 2 -12 5 3 11 19 14 34 9 46 56 70 125 64 36 -2 62
-10 70 -20z m-773 -228 c-28 -23 -28 -24 -3 -9 26 16 48 14 48 -6 0 -5 -6 -9
-14 -9 -7 0 -19 -7 -27 -16 -8 -10 -21 -13 -38 -9 -20 4 -22 3 -11 -5 12 -8
13 -10 1 -10 -8 0 -23 -7 -33 -17 -17 -15 -18 -14 -18 20 0 29 4 37 18 37 9 0
35 11 57 25 51 31 58 31 20 -1z m77 8 c-7 -2 -10 -8 -7 -12 3 -5 0 -12 -7 -16
-7 -4 -10 -4 -6 1 4 4 0 14 -10 22 -16 14 -16 14 1 9 9 -3 17 -1 17 5 0 6 5 7
12 3 9 -6 9 -9 0 -12z m863 8 c3 -6 -1 -7 -9 -4 -18 7 -21 14 -7 14 6 0 13 -4
16 -10z m964 -235 c19 -16 61 -93 61 -112 0 -16 -33 32 -34 50 -1 12 -8 21
-15 19 -7 -1 -10 2 -6 8 9 14 -31 54 -46 45 -8 -5 -10 -4 -5 3 12 20 -24 14
-57 -10 -18 -11 -40 -31 -50 -42 -17 -20 -18 -20 -8 -1 11 23 47 55 61 55 6 0
10 4 10 9 0 14 33 19 50 7 8 -5 26 -19 39 -31z m-1042 19 c-3 -3 -12 -4 -19
-1 -8 3 -5 6 6 6 11 1 17 -2 13 -5z m80 -10 c-3 -3 -12 -4 -19 -1 -8 3 -5 6 6
6 11 1 17 -2 13 -5z m-141 -23 c-2 -3 29 -5 70 -4 55 2 77 -2 89 -13 11 -11
15 -12 15 -3 0 26 29 -15 32 -46 2 -25 0 -30 -17 -28 -11 1 -22 -1 -25 -5 -3
-4 -15 -13 -28 -20 -22 -12 -45 -10 -87 8 -11 5 -37 11 -57 15 -24 4 -38 11
-38 20 0 8 5 15 11 15 5 0 7 5 3 12 -6 9 -9 9 -12 0 -4 -12 -34 -17 -44 -6
-14 13 6 42 34 48 16 3 27 10 24 15 -3 5 3 7 14 4 11 -3 18 -8 16 -12z m-207
-45 c-2 -2 -17 -6 -34 -10 -22 -5 -26 -4 -15 4 14 9 59 15 49 6z m1029 -56
c-12 -37 -34 -54 -23 -19 7 23 24 49 31 49 1 0 -2 -14 -8 -30z m-1308 10 c0
-5 -2 -10 -4 -10 -3 0 -8 5 -11 10 -3 6 -1 10 4 10 6 0 11 -4 11 -10z m1396
-2 c4 -7 3 -8 -4 -4 -6 3 -16 -3 -23 -16 -9 -16 -9 -23 0 -26 6 -2 8 -9 4 -15
-8 -14 -8 -74 2 -124 8 -46 -4 -38 -15 9 -5 25 -9 29 -14 16 -9 -20 15 -74 32
-71 6 2 9 -4 5 -13 -3 -9 -8 -12 -12 -5 -4 5 -12 -3 -20 -20 -7 -17 -17 -26
-24 -22 -8 5 -8 8 1 11 17 5 15 32 -3 32 -11 0 -15 12 -15 48 0 26 -5 53 -10
58 -13 13 10 63 53 117 34 42 33 41 43 25z m-1712 -58 c-6 -6 -10 -3 -10 10 0
13 4 16 10 10 7 -7 7 -13 0 -20z m903 -149 c87 -32 90 -35 55 -60 -65 -46
-143 -64 -111 -25 9 11 8 20 -5 39 -9 14 -21 25 -27 25 -6 0 -8 3 -6 8 7 11
-109 5 -132 -7 -15 -8 -20 -7 -25 6 -4 9 -9 13 -13 10 -3 -4 0 -13 7 -22 13
-15 7 -45 -9 -45 -5 0 -11 8 -14 18 -2 9 -8 26 -13 36 -5 13 -4 17 3 13 6 -4
13 0 16 8 12 29 190 27 274 -4z m-307 -96 c0 -5 -5 -3 -10 5 -5 8 -10 20 -10
25 0 6 5 3 10 -5 5 -8 10 -19 10 -25z m120 -6 c0 -20 -44 -44 -61 -33 -5 3 -9
16 -9 29 0 18 4 23 15 19 8 -4 15 -2 15 4 0 6 9 8 20 5 11 -3 20 -14 20 -24z
m-432 -1 c3 -16 14 -22 35 -19 4 0 7 -12 7 -27 0 -16 12 -52 26 -82 14 -30 27
-68 29 -84 1 -17 0 -21 -2 -8 -5 24 -19 29 -26 10 -3 -10 -7 -10 -19 0 -11 9
-18 10 -23 2 -3 -5 0 -10 7 -10 7 0 0 -11 -15 -24 -16 -14 -35 -22 -43 -19
-10 4 -12 0 -8 -11 6 -15 -5 -21 -29 -17 -5 1 -6 -3 -3 -8 4 -5 2 -12 -4 -16
-6 -4 -10 5 -10 20 0 18 4 25 13 22 8 -3 14 4 15 16 0 13 -2 17 -6 10 -4 -6
-8 23 -9 65 -1 42 -6 90 -12 105 -8 20 -8 35 0 50 9 21 9 21 -5 4 -14 -18 -15
-17 -29 10 l-15 28 61 0 c51 0 62 -3 65 -17z m-207 -9 c13 -21 11 -26 -13 -34
l-23 -8 23 -4 c30 -6 38 -28 22 -59 -12 -22 -11 -27 15 -54 25 -26 26 -30 10
-30 -10 0 -26 7 -36 16 -16 14 -18 14 -23 -4 -4 -11 -5 -25 -4 -32 2 -7 -1
-14 -7 -16 -6 -2 -11 19 -12 51 -1 30 2 55 7 55 6 0 10 9 10 20 0 11 -4 20 -9
20 -10 0 -22 66 -14 85 6 18 41 14 54 -6z m1152 -49 c16 -16 35 -30 43 -30 8
0 14 -6 14 -13 0 -7 9 -18 21 -25 11 -7 18 -19 15 -27 -3 -8 0 -12 7 -9 14 5
37 -40 37 -71 0 -12 5 -26 11 -32 7 -7 9 -42 5 -99 -9 -145 -9 -148 -32 -158
-17 -8 -23 -22 -28 -64 -4 -29 -15 -72 -26 -95 -24 -49 -24 -45 -3 -49 13 -2
7 -12 -25 -45 -35 -38 -38 -44 -24 -53 15 -8 14 -9 -5 -10 -31 0 -112 -115
-113 -163 -1 -7 -13 -21 -27 -32 -15 -11 -52 -46 -84 -77 -31 -32 -61 -58 -66
-58 -5 0 -24 -14 -43 -30 -54 -47 -53 -46 -130 -83 -45 -21 -67 -37 -59 -41 8
-3 2 -4 -12 -1 -37 7 -83 -17 -66 -34 10 -11 0 -12 -49 -9 -67 4 -152 41 -168
73 -21 39 -121 171 -183 239 -34 38 -60 73 -57 78 3 5 0 7 -7 6 -14 -3 -63 63
-146 200 l-56 93 -4 98 c-4 78 -1 118 17 192 22 96 45 144 58 123 11 -17 51
-36 62 -29 6 3 10 2 10 -4 0 -5 -6 -11 -12 -14 -7 -2 -10 -8 -6 -12 4 -4 15
-2 24 6 15 12 16 12 11 -6 -3 -11 -9 -33 -13 -50 -4 -16 -17 -43 -29 -60 -12
-16 -25 -38 -28 -48 -4 -10 -10 -16 -15 -13 -9 5 -10 -3 -18 -89 -4 -45 -1
-70 13 -100 10 -23 20 -41 23 -42 20 -2 59 -19 77 -33 12 -10 49 -20 83 -24
33 -4 60 -11 60 -16 0 -6 -4 -10 -8 -10 -13 0 -7 -43 6 -48 6 -2 18 13 26 32
11 26 21 36 38 36 13 0 48 9 78 19 39 13 59 15 68 8 9 -7 21 -6 40 4 31 15
101 88 102 106 0 6 6 13 13 15 8 3 12 30 13 82 1 65 -2 85 -23 124 -14 26 -28
52 -33 57 -15 21 -20 79 -8 111 12 33 13 33 52 26 69 -12 244 -9 258 6 6 6 19
12 28 12 8 0 35 10 60 21 36 16 42 22 30 30 -11 8 -3 9 27 5 30 -4 41 -3 39 7
-3 20 -16 37 -29 37 -7 0 -6 -4 3 -10 8 -5 11 -10 5 -10 -5 0 -16 4 -24 9 -11
7 -9 10 8 16 11 3 26 3 32 -1 7 -4 9 -3 6 3 -4 6 -16 13 -27 16 -11 3 -18 1
-14 -4 3 -5 -4 -9 -15 -9 -46 0 -8 46 44 55 22 4 47 11 55 16 30 17 65 9 93
-21z m-583 0 c8 12 10 11 10 -7 0 -24 -25 -32 -33 -10 -3 8 -11 6 -28 -8 l-24
-20 24 28 c18 20 27 24 33 15 6 -10 10 -10 18 2z m350 -120 c-8 -5 -22 -9 -30
-9 -10 0 -8 3 5 9 27 12 43 12 25 0z m-669 -102 c-10 -11 -11 -9 -5 7 7 18 6
18 -9 6 -9 -7 -15 -17 -12 -21 3 -5 0 -12 -6 -16 -8 -4 -9 -3 -5 4 4 7 2 12
-5 12 -6 0 -1 9 12 19 26 21 53 11 30 -11z m64 12 c-3 -5 -16 -15 -28 -21 -22
-12 -22 -12 -3 10 19 21 43 30 31 11z m-130 -40 c-3 -5 -1 -10 6 -10 7 0 -3
-10 -22 -23 -42 -29 -51 -16 -12 17 31 28 38 31 28 16z m121 -5 c-11 -8 -25
-15 -30 -15 -6 1 0 7 14 15 32 19 40 18 16 0z m-22 -90 c8 -7 20 -24 26 -39 5
-15 14 -25 19 -22 4 3 21 -5 37 -19 18 -15 37 -23 51 -20 13 2 26 -1 29 -7 4
-7 2 -8 -5 -4 -6 4 -14 0 -17 -8 -3 -9 -12 -16 -20 -16 -7 0 -17 -7 -21 -15
-6 -10 -30 -15 -81 -17 -39 -2 -72 -6 -72 -10 0 -12 -85 -47 -124 -52 -47 -6
-96 11 -97 32 0 13 -2 13 -9 -3 -7 -16 -9 -13 -9 17 -1 28 6 42 30 65 17 15
40 42 51 58 14 22 18 24 13 8 -3 -12 -2 -24 4 -27 5 -3 12 13 16 35 9 52 45
88 80 81 26 -5 29 -22 5 -30 -8 -3 -10 0 -5 8 5 9 4 11 -4 6 -17 -11 -5 -23
23 -23 23 0 50 31 45 53 -5 28 4 24 11 -6 5 -18 15 -39 24 -45z m-44 34 c0 -5
-4 -9 -8 -9 -5 0 -9 7 -9 15 0 8 4 12 9 9 4 -3 8 -9 8 -15z m380 -969 c0 -5
-4 -10 -10 -10 -5 0 -10 5 -10 10 0 6 5 10 10 10 6 0 10 -4 10 -10z m451 -80
c12 0 16 -5 13 -15 -4 -9 -1 -15 8 -15 7 0 19 -9 25 -19 10 -16 8 -22 -7 -36
-17 -15 -18 -20 -5 -38 12 -17 12 -23 -3 -46 -9 -14 -21 -29 -26 -32 -5 -4 -6
-15 -2 -24 4 -12 2 -16 -8 -12 -14 6 -26 -12 -26 -39 0 -17 -72 -143 -82 -144
-4 0 -19 -5 -35 -11 -15 -6 -28 -9 -29 -7 0 2 -8 -3 -17 -11 -21 -17 -23 2 -3
21 10 9 11 20 5 36 -5 13 -8 47 -7 75 2 29 -1 86 -5 127 -4 41 -4 69 -1 63 3
-7 9 -13 14 -13 10 0 10 49 -1 56 -5 3 -6 10 -3 16 4 6 2 8 -3 5 -6 -4 -18 2
-28 13 -10 12 -13 20 -7 20 7 0 12 -4 12 -10 0 -5 6 -10 14 -10 9 0 12 7 9 20
-4 16 -2 19 13 13 13 -5 16 -3 11 10 -4 11 -2 14 9 10 7 -3 14 -8 14 -12 0 -4
17 -7 39 -7 27 1 37 5 33 14 -3 10 2 11 22 6 18 -4 26 -2 27 7 0 11 2 11 6 2
2 -7 13 -13 24 -13z m-2328 -1190 c26 -11 49 -26 53 -32 4 -7 3 -8 -4 -4 -12
7 -73 -37 -84 -61 -2 -5 -20 -23 -40 -41 l-36 -34 -10 47 c-12 57 0 111 28
120 11 4 18 11 15 16 -10 16 30 10 78 -11z m1268 -41 c11 -11 18 -26 16 -33
-3 -7 -8 -44 -12 -82 -8 -92 -14 -116 -25 -109 -5 3 -6 -9 -3 -29 3 -19 2 -43
-3 -53 -6 -14 -9 -9 -13 22 -4 22 -11 39 -17 38 -5 -1 -9 14 -7 35 2 32 1 34
-6 12 -5 -14 -9 -19 -10 -12 -2 20 -36 14 -58 -10 -21 -24 -38 -108 -22 -108
5 0 9 -8 9 -17 0 -13 -6 -9 -19 12 -20 31 -46 218 -34 238 3 5 6 19 7 30 1 21
26 38 26 17 0 -6 -4 -8 -10 -5 -6 4 -7 -1 -3 -11 4 -11 8 -13 11 -6 2 7 9 9
14 6 7 -4 8 -2 4 4 -4 7 -1 12 6 13 10 0 10 2 0 6 -21 8 37 43 71 43 15 0 27
5 27 10 0 17 29 11 51 -11z m-599 -74 c95 -6 179 -27 201 -49 8 -8 27 -16 42
-18 l29 -3 0 -112 1 -112 -65 -7 c-108 -12 -612 3 -622 18 -5 8 -11 9 -15 3
-5 -6 -30 -10 -56 -9 -27 0 -51 -5 -55 -11 -13 -21 -86 -65 -92 -55 -4 6 -21
5 -45 -3 -39 -11 -49 -17 -80 -45 -9 -8 -15 -9 -15 -3 0 6 -5 11 -11 11 -6 0
-8 -8 -4 -18 3 -11 -3 -30 -15 -45 -14 -18 -19 -35 -15 -54 4 -21 3 -23 -3 -9
-8 19 -9 18 -15 -4 -3 -13 -2 -27 3 -30 6 -4 6 -28 0 -65 -5 -33 -9 -107 -8
-165 1 -90 2 -96 7 -45 5 42 7 11 9 -100 3 -196 4 -197 42 -280 19 -43 22 -67
9 -76 -27 -17 -39 -9 -39 26 0 40 -15 47 -24 10 -11 -42 -65 -23 -67 23 l-1
27 -8 -25 c-7 -21 -15 -12 -11 12 0 4 -5 5 -13 2 -19 -7 -23 1 -40 86 -51 242
-39 808 15 774 5 -3 9 3 9 14 0 30 40 57 120 80 41 12 84 23 95 25 15 2 19 9
18 32 -4 51 14 89 49 103 18 8 49 20 68 27 53 22 204 55 287 65 41 4 77 11 81
14 3 4 38 4 76 1 39 -2 110 -7 158 -10z m392 -10 c-4 -8 -10 -15 -15 -15 -4 0
-6 7 -3 15 4 8 10 15 15 15 4 0 6 -7 3 -15z m-845 -336 c7 11 11 10 20 -5 6
-12 11 -14 11 -6 0 10 10 12 38 8 39 -6 589 -20 730 -18 72 1 82 -1 72 -14
-10 -11 -10 -14 1 -14 11 0 11 -2 -1 -10 -13 -8 -13 -10 2 -10 9 0 18 6 21 13
5 12 49 -78 61 -123 3 -14 3 -19 0 -12 -13 29 -26 10 -21 -30 4 -28 2 -37 -4
-27 -7 11 -10 10 -15 -8 -4 -13 -10 -23 -14 -23 -8 0 -73 -129 -85 -170 -4
-14 -22 -45 -39 -69 -17 -24 -37 -53 -43 -65 -13 -21 -13 -21 -14 4 l-1 25
-10 -28 c-5 -15 -14 -25 -19 -21 -20 12 -28 -7 -14 -30 29 -44 -3 -72 -80 -67
-63 4 -112 20 -120 39 -6 16 -7 16 -16 0 -11 -20 -5 -64 12 -84 7 -9 8 -14 1
-14 -6 0 -13 4 -17 9 -3 5 -18 9 -34 9 -33 -1 -51 8 -51 27 0 10 -16 13 -65
13 -45 0 -69 4 -80 15 -16 17 -19 33 -7 40 4 2 1 2 -6 0 -7 -1 -26 4 -41 11
-24 13 -136 16 -201 5 -34 -5 -59 1 -54 14 5 15 -71 45 -83 34 -3 -4 8 -10 26
-13 17 -4 34 -11 38 -17 4 -6 -2 -8 -18 -3 -13 4 -49 14 -79 22 -74 20 -88 35
-72 76 9 25 9 34 -1 40 -9 5 -8 14 6 38 10 16 15 35 12 41 -9 14 24 49 44 48
12 0 11 -2 -3 -8 -12 -5 -16 -10 -9 -14 13 -8 43 2 43 14 0 5 8 9 17 9 14 0
13 -3 -5 -16 -25 -17 -20 -38 8 -29 10 3 21 1 25 -5 3 -5 22 -10 41 -10 19 0
43 -5 53 -12 15 -9 38 -9 102 1 92 14 175 12 172 -4 -1 -6 14 -10 35 -8 36 2
36 2 7 -6 l-30 -9 33 -1 c17 0 32 -5 32 -10 0 -13 43 0 58 18 8 9 11 10 7 4
-8 -16 17 -17 33 -1 15 15 16 31 0 22 -7 -5 -8 -3 -3 6 5 9 14 4 32 -19 24
-30 73 -44 73 -21 0 6 11 8 25 4 35 -9 31 2 -7 22 -57 28 -69 43 -56 68 14 26
18 77 5 69 -5 -3 -6 3 -3 14 5 14 -2 30 -24 53 -30 32 -32 33 -98 27 -37 -3
-113 -13 -169 -21 -104 -16 -131 -14 -146 11 -9 15 -27 17 -27 3 0 -5 12 -17
28 -25 15 -9 19 -14 9 -11 -10 3 -25 6 -33 6 -9 0 -12 5 -9 10 3 6 -1 10 -9
10 -9 0 -16 -8 -16 -19 0 -15 6 -19 20 -16 12 2 31 0 43 -4 16 -6 10 -8 -26
-8 -40 1 -47 4 -47 22 0 15 -2 17 -9 6 -5 -7 -7 -23 -5 -35 2 -11 2 -15 -2 -8
-3 6 -15 12 -27 13 -22 0 -22 0 1 9 12 5 22 18 22 29 0 28 -57 34 -92 10 -14
-11 -34 -19 -43 -19 -24 0 -55 -19 -55 -33 0 -9 2 -9 8 -1 7 12 69 29 90 25 6
-1 28 2 47 8 19 5 35 6 35 1 0 -5 -26 -12 -57 -16 -75 -9 -117 -26 -48 -19 38
4 44 2 27 -5 -12 -5 -42 -9 -67 -8 -35 2 -45 6 -49 23 -7 25 13 83 37 109 9
11 17 23 17 28 0 19 2 24 21 45 12 11 36 24 55 27 19 4 34 12 34 18 0 7 15 8
43 5 34 -5 38 -4 17 4 -20 8 -22 12 -10 19 9 6 17 5 22 -3 6 -9 10 -9 17 2z
m1005 -32 c3 3 11 -6 17 -21 11 -24 13 -24 25 -8 12 16 13 16 15 -3 1 -11 1
-23 0 -27 0 -5 3 -8 8 -8 5 0 12 -13 16 -30 3 -16 14 -39 24 -52 33 -42 53
-90 60 -145 4 -29 4 -53 0 -53 -8 0 -19 37 -19 70 0 18 -3 21 -9 12 -6 -10
-10 -7 -15 11 -3 14 -9 33 -13 43 -4 12 -3 15 5 10 7 -4 12 -2 12 3 0 6 -4 11
-8 11 -5 0 -16 15 -25 33 -15 27 -17 28 -13 7 5 -24 4 -24 -9 -6 -12 15 -12
22 -3 27 7 5 9 11 5 15 -3 4 -13 1 -21 -5 -12 -10 -16 -8 -21 10 -6 17 -9 19
-16 8 -7 -11 -9 -11 -9 2 0 9 -13 43 -30 75 -36 71 -37 77 -6 42 13 -15 26
-24 30 -21z m33 -9 c-3 -8 -6 -5 -6 6 -1 11 2 17 5 13 3 -3 4 -12 1 -19z
m-1640 6 c-3 -3 -21 -7 -41 -9 -19 -2 -41 -7 -48 -11 -9 -6 -9 -3 1 9 9 11 28
17 54 17 22 0 38 -3 34 -6z m-7 -119 c5 3 7 -11 5 -32 -1 -21 -3 -47 -4 -57
-1 -16 -4 -17 -13 -8 -7 7 -20 12 -30 12 -23 0 -68 28 -68 43 0 13 27 34 65
52 26 12 30 11 33 -1 2 -8 7 -12 12 -9z m-130 -36 c-7 -11 -14 -18 -17 -15 -3
3 0 12 7 21 18 21 23 19 10 -6z m640 -29 c-8 -5 -24 -9 -35 -9 l-20 0 20 9
c11 5 27 9 35 9 13 1 13 0 0 -9z m580 -100 c0 -5 -2 -10 -4 -10 -3 0 -8 5 -11
10 -3 6 -1 10 4 10 6 0 11 -4 11 -10z m-42 -75 c-3 -3 -9 2 -12 12 -6 14 -5
15 5 6 7 -7 10 -15 7 -18z m-155 -22 c-7 -2 -19 -2 -25 0 -7 3 -2 5 12 5 14 0
19 -2 13 -5z m69 0 c-12 -2 -20 -9 -17 -14 3 -5 -1 -6 -10 -2 -13 5 -14 7 -3
14 7 5 22 8 33 7 17 -1 17 -1 -3 -5z m-975 -117 c-1 -19 -5 -32 -9 -30 -3 2
-8 -2 -11 -8 -2 -7 -8 -9 -13 -5 -5 4 -3 12 4 16 12 7 18 24 21 54 1 4 3 7 6
7 3 0 4 -15 2 -34z m-38 5 c9 -6 10 -11 2 -15 -6 -4 -11 -2 -11 3 0 6 -6 11
-13 11 -8 0 -14 -7 -14 -15 0 -8 5 -15 10 -15 5 0 7 -7 4 -14 -4 -11 -1 -13
10 -9 13 5 15 2 10 -12 -6 -15 -5 -16 8 -5 9 7 15 8 15 2 0 -6 8 -12 18 -15 9
-2 0 -4 -21 -4 -41 -1 -67 24 -67 63 0 33 20 43 49 25z m46 -61 c3 -5 1 -10
-4 -10 -6 0 -11 5 -11 10 0 6 2 10 4 10 3 0 8 -4 11 -10z m620 -50 c-3 -5 -12
-10 -18 -10 -7 0 -6 4 3 10 19 12 23 12 15 0z m52 4 c-3 -3 -12 -4 -19 -1 -8
3 -5 6 6 6 11 1 17 -2 13 -5z m46 -11 c-7 -2 -19 -2 -25 0 -7 3 -2 5 12 5 14
0 19 -2 13 -5z m60 0 c-7 -2 -19 -2 -25 0 -7 3 -2 5 12 5 14 0 19 -2 13 -5z
m-103 -13 c0 -5 -5 -10 -11 -10 -5 0 -7 5 -4 10 3 6 8 10 11 10 2 0 4 -4 4
-10z m87 -6 c-3 -3 -12 -4 -19 -1 -8 3 -5 6 6 6 11 1 17 -2 13 -5z m6 -21
c-13 -2 -33 -2 -45 0 -13 2 -3 4 22 4 25 0 35 -2 23 -4z m-321 -27 c5 -8 8 -7
8 1 0 12 88 11 109 -1 16 -10 9 -45 -8 -38 -9 3 -12 1 -7 -6 4 -7 3 -12 -3
-12 -20 0 -21 19 -1 25 11 3 20 11 20 16 0 14 -39 0 -64 -22 -20 -19 -20 -19
5 -20 13 0 18 -3 11 -6 -6 -2 -9 -9 -6 -15 10 -17 -18 -28 -53 -22 -34 6 -40
0 -24 -25 5 -7 14 -10 20 -7 6 4 11 3 11 -3 0 -6 -16 -13 -36 -17 -31 -6 -39
-3 -55 17 -26 34 -29 56 -11 71 12 10 14 10 8 1 -5 -9 -2 -11 7 -7 9 3 13 13
9 26 -3 13 -1 19 5 15 20 -12 25 27 6 41 -16 12 -15 13 12 6 17 -4 33 -12 37
-18z m178 -46 c-8 -5 -22 -9 -30 -9 -10 0 -8 3 5 9 27 12 43 12 25 0z m125 0
c16 -7 12 -8 -17 -7 -20 1 -34 5 -31 10 5 9 22 8 48 -3z m-135 -50 c0 -5 -4
-10 -10 -10 -5 0 -10 5 -10 10 0 6 5 10 10 10 6 0 10 -4 10 -10z m-156 -68 c2
-4 1 -14 -3 -21 -6 -9 -10 -7 -14 8 -5 20 7 29 17 13z m-62 -157 c13 -16 33
-38 45 -49 12 -10 20 -23 17 -28 -3 -5 2 -19 13 -30 18 -21 18 -21 -27 -15
-26 3 -50 13 -58 24 -9 13 -15 15 -20 6 -6 -9 -15 -8 -39 3 -26 13 -32 22 -36
57 -5 51 13 78 37 57 14 -11 16 -9 16 16 1 28 1 28 15 9 8 -11 25 -33 37 -50z
m91 30 c-3 -9 -8 -14 -10 -11 -3 3 -2 9 2 15 9 16 15 13 8 -4z m35 -40 c-6
-14 -13 -24 -14 -22 -6 6 9 47 17 47 5 0 3 -11 -3 -25z m76 -16 c-2 -4 4 -13
13 -20 15 -12 16 -12 10 3 -4 12 -2 15 9 11 11 -4 12 -9 5 -16 -14 -14 -14
-58 0 -94 5 -15 6 -23 1 -18 -11 13 -39 83 -47 118 -3 15 -10 25 -15 22 -6 -3
-10 1 -10 9 0 13 3 14 19 4 11 -7 18 -15 15 -19z m-47 -28 c1 -11 11 -29 22
-40 12 -12 21 -26 21 -33 0 -6 -15 6 -34 27 -19 21 -32 44 -29 52 8 19 19 16
20 -6z m120 -74 c1 -39 1 -40 -8 -12 -8 26 -6 55 3 55 2 0 4 -19 5 -43z m30 1
c-3 -7 -5 -2 -5 12 0 14 2 19 5 13 2 -7 2 -19 0 -25z m1140 -60 c-3 -8 -6 -5
-6 6 -1 11 2 17 5 13 3 -3 4 -12 1 -19z"/>
<path d="M2325 5020 c-3 -6 1 -7 9 -4 18 7 21 14 7 14 -6 0 -13 -4 -16 -10z"/>
<path d="M2608 4773 c7 -3 16 -2 19 1 4 3 -2 6 -13 5 -11 0 -14 -3 -6 -6z"/>
<path d="M2327 4570 c-3 -12 -3 -19 0 -16 3 3 12 -2 19 -12 11 -14 13 -15 14
-1 0 8 -6 23 -13 34 -13 17 -14 17 -20 -5z"/>
<path d="M2070 4899 c0 -5 5 -7 10 -4 6 3 10 8 10 11 0 2 -4 4 -10 4 -5 0 -10
-5 -10 -11z"/>
<path d="M3810 4580 c-9 -6 -10 -10 -3 -10 6 0 15 5 18 10 8 12 4 12 -15 0z"/>
<path d="M3786 4535 c-9 -26 -7 -32 5 -12 6 10 9 21 6 23 -2 3 -7 -2 -11 -11z"/>
<path d="M3790 4420 c0 -11 5 -20 10 -20 6 0 10 9 10 20 0 11 -4 20 -10 20 -5
0 -10 -9 -10 -20z"/>
<path d="M3250 3756 c-20 -8 -55 -32 -78 -55 -24 -22 -46 -40 -50 -39 -4 2
-18 -5 -32 -15 -14 -9 -62 -24 -105 -33 -44 -9 -82 -20 -85 -24 -3 -4 -25 -10
-50 -14 -25 -3 -56 -9 -70 -12 -14 -3 -38 -7 -55 -9 -36 -4 -97 -26 -106 -39
-4 -5 -12 -5 -18 -2 -6 4 -14 1 -17 -7 -3 -8 -25 -17 -48 -20 -24 -4 -55 -12
-69 -18 -23 -10 -25 -15 -15 -33 7 -12 12 -30 12 -41 1 -16 7 -20 29 -18 15 1
25 -1 23 -5 -3 -4 4 -8 15 -8 18 0 18 2 5 12 -31 22 -18 36 29 32 25 -2 46 0
47 4 2 4 39 11 83 17 44 5 100 17 125 26 83 30 219 63 222 54 7 -20 158 1 158
22 0 12 62 8 71 -5 9 -12 77 41 84 65 5 14 12 18 26 14 14 -5 17 -3 13 10 -4
8 0 30 7 47 10 24 10 33 1 36 -7 2 -12 12 -12 22 0 19 -14 33 -37 36 -7 1 -13
-2 -13 -8 0 -6 -6 -5 -15 2 -12 10 -19 10 -27 2 -7 -7 -19 -12 -27 -12 -11 0
-10 4 5 15 23 17 20 17 -26 1z"/>
<path d="M2142 3730 c0 -14 2 -19 5 -12 2 6 2 18 0 25 -3 6 -5 1 -5 -13z"/>
<path d="M2978 3483 c6 -2 18 -2 25 0 6 3 1 5 -13 5 -14 0 -19 -2 -12 -5z"/>
<path d="M2372 3459 c2 -6 8 -10 13 -10 5 0 11 4 13 10 2 6 -4 11 -13 11 -9 0
-15 -5 -13 -11z"/>
<path d="M2786 3347 c5 -13 2 -16 -9 -11 -12 4 -15 0 -11 -18 2 -13 2 -17 -2
-10 -3 6 -10 12 -15 12 -6 0 -7 -4 -4 -10 3 -5 1 -10 -4 -10 -6 0 -11 6 -11
13 0 8 -6 14 -14 14 -8 0 -12 -6 -9 -14 3 -8 -3 -13 -17 -13 -12 0 -30 -5 -40
-10 -12 -6 -21 -7 -25 0 -3 5 -12 7 -20 4 -28 -11 -4 -24 48 -26 35 -1 42 -3
20 -5 -46 -6 -33 -33 16 -33 27 0 32 -3 21 -10 -8 -5 -10 -10 -4 -10 5 0 19 7
30 15 10 8 14 15 9 15 -6 0 -16 9 -22 19 -10 16 -9 18 8 14 12 -3 23 -12 26
-19 3 -8 13 -14 22 -15 12 0 12 -2 -4 -9 -16 -6 -14 -8 12 -7 27 0 31 3 22 14
-9 10 -8 13 5 13 9 0 16 -4 16 -10 0 -32 57 7 77 51 16 36 1 49 -57 49 -25 0
-52 6 -59 13 -10 10 -11 9 -5 -6z m-62 -106 c3 -4 -6 -6 -19 -3 -14 2 -25 6
-25 8 0 8 39 4 44 -5z"/>
<path d="M2630 3310 c0 -13 11 -13 30 0 12 8 11 10 -7 10 -13 0 -23 -4 -23
-10z"/>
<path d="M2590 3256 c0 -9 30 -14 35 -6 4 6 -3 10 -14 10 -12 0 -21 -2 -21 -4z"/>
<path d="M2373 3934 c-13 -14 -18 -24 -11 -22 10 4 45 48 37 48 -2 0 -14 -12
-26 -26z"/>
<path d="M3270 2900 c0 -13 18 -22 24 -11 3 5 -1 11 -9 15 -8 3 -15 1 -15 -4z"/>
<path d="M2191 1454 c0 -11 3 -14 6 -6 3 7 2 16 -1 19 -3 4 -6 -2 -5 -13z"/>
<path d="M2062 1420 c0 -14 2 -19 5 -12 2 6 2 18 0 25 -3 6 -5 1 -5 -13z"/>
<path d="M1881 1334 c0 -11 3 -14 6 -6 3 7 2 16 -1 19 -3 4 -6 -2 -5 -13z"/>
<path d="M825 1169 c-11 -17 1 -21 15 -4 8 9 8 15 2 15 -6 0 -14 -5 -17 -11z"/>
<path d="M1308 1223 c7 -3 16 -2 19 1 4 3 -2 6 -13 5 -11 0 -14 -3 -6 -6z"/>
<path d="M2006 1219 c2 -4 -6 -10 -18 -12 -21 -4 -20 -4 3 -6 15 0 31 5 37 12
8 10 6 13 -8 13 -10 0 -17 -3 -14 -7z"/>
<path d="M1010 1175 c-7 -9 -8 -15 -2 -15 5 0 12 7 16 15 3 8 4 15 2 15 -2 0
-9 -7 -16 -15z"/>
<path d="M1891 1174 c0 -11 3 -14 6 -6 3 7 2 16 -1 19 -3 4 -6 -2 -5 -13z"/>
<path d="M1004 1067 c-5 -8 -20 -17 -33 -19 -14 -1 -26 -9 -27 -16 -1 -7 0 -8
3 -2 2 5 20 10 38 10 36 0 54 15 37 32 -7 7 -13 5 -18 -5z"/>
<path d="M1155 1070 c-3 -5 -2 -10 4 -10 5 0 13 5 16 10 3 6 2 10 -4 10 -5 0
-13 -4 -16 -10z"/>
<path d="M1732 978 c3 -7 23 -14 45 -16 35 -3 43 -8 62 -42 12 -22 24 -40 27
-40 2 0 4 15 4 33 0 51 -30 77 -91 77 -36 0 -49 -4 -47 -12z"/>
<path d="M1665 890 c-3 -5 -1 -10 4 -10 6 0 11 5 11 10 0 6 -2 10 -4 10 -3 0
-8 -4 -11 -10z"/>
<path d="M946 881 c-3 -5 1 -11 9 -15 8 -3 15 -1 15 4 0 13 -18 22 -24 11z"/>
<path d="M1605 819 c-4 -6 -5 -12 -2 -15 2 -3 7 2 10 11 7 17 1 20 -8 4z"/>
<path d="M1921 721 c-8 -5 -9 -11 -3 -15 5 -3 12 1 16 9 6 17 6 18 -13 6z"/>
<path d="M1130 640 c19 -13 30 -13 30 0 0 6 -10 10 -22 10 -19 0 -20 -2 -8
-10z"/>
<path d="M1435 609 c-4 -6 -5 -12 -2 -15 2 -3 7 2 10 11 7 17 1 20 -8 4z"/>
<path d="M945 171 c-3 -5 -1 -12 5 -16 5 -3 10 1 10 9 0 18 -6 21 -15 7z"/>
<path d="M5084 5680 c-6 -69 -9 -80 -25 -80 -15 0 -17 5 -12 33 3 17 6 34 5
37 -1 54 -4 70 -12 70 -5 0 -10 -13 -10 -29 0 -16 -5 -53 -12 -81 -10 -43 -17
-54 -40 -62 -36 -13 -36 -28 1 -28 28 0 28 0 20 -42 -12 -62 -11 -66 10 -78
15 -7 23 -6 35 6 21 21 21 48 0 40 -14 -5 -16 -1 -10 31 3 21 6 43 6 50 0 7 9
17 19 23 18 9 19 7 14 -53 -3 -34 -6 -73 -7 -87 -2 -36 26 -32 38 5 20 69 25
70 25 4 1 -71 7 -85 28 -68 20 17 18 143 -3 164 -9 9 -23 14 -31 11 -11 -5
-13 10 -12 77 2 116 0 137 -10 137 -5 0 -13 -36 -17 -80z"/>
<path d="M5383 5704 c31 -101 59 -241 61 -299 1 -62 4 -70 21 -68 11 1 25 -7
33 -18 19 -28 63 -24 94 9 30 32 48 64 48 86 0 26 -28 18 -44 -12 -8 -15 -24
-36 -35 -46 -29 -26 -44 -10 -46 47 -1 24 -5 50 -10 56 -4 7 0 20 9 30 24 27
26 74 3 79 -10 2 -26 -3 -36 -12 -17 -15 -20 -11 -47 71 -16 48 -35 89 -43 91
-9 3 -11 -2 -8 -14z m111 -189 c-9 -14 -18 -25 -21 -25 -5 0 5 18 20 38 17 22
18 13 1 -13z"/>
<path d="M4707 5672 c-21 -23 -22 -38 -3 -45 10 -4 13 -1 10 7 -3 8 -1 17 5
21 7 4 12 -12 13 -47 2 -74 5 -141 7 -155 0 -7 7 -13 15 -13 9 0 16 16 20 45
4 24 11 47 15 49 4 3 6 -8 3 -23 -6 -42 14 -73 45 -69 27 3 53 32 40 45 -4 4
-16 2 -27 -5 -18 -11 -19 -8 -22 41 -3 48 -5 52 -28 52 -22 0 -26 6 -35 55
-12 60 -30 73 -58 42z"/>
<path d="M4610 5624 c-13 -33 -13 -120 0 -145 7 -13 21 -19 45 -19 42 0 55 20
55 88 0 35 -6 57 -21 76 -27 35 -66 35 -79 0z m68 -88 c-2 -33 -7 -41 -23 -41
-17 0 -20 8 -23 49 -2 27 0 56 3 65 6 14 9 13 26 -8 14 -17 19 -36 17 -65z"/>
<path d="M5223 5522 c-14 -9 -43 -85 -43 -112 0 -25 34 -52 55 -44 10 4 21 1
26 -7 20 -32 25 14 9 88 -16 77 -24 89 -47 75z m4 -109 c-3 -10 -5 -2 -5 17 0
19 2 27 5 18 2 -10 2 -26 0 -35z"/>
<path d="M5360 5513 c-8 -3 -21 -12 -27 -21 -12 -14 -13 -14 -13 1 0 36 -19
15 -26 -28 -8 -60 1 -95 26 -95 16 0 20 7 20 33 0 17 5 39 10 47 8 12 10 11
10 -8 0 -31 26 -92 39 -92 16 0 13 39 -6 101 -9 30 -16 57 -15 62 1 4 1 7 0 6
-2 0 -10 -3 -18 -6z"/>
<path d="M4828 5268 c-9 -7 -34 -47 -54 -88 -33 -66 -37 -84 -38 -152 -1 -42
2 -80 6 -84 5 -4 23 -7 41 -6 31 1 32 0 33 -38 1 -36 20 -77 31 -66 2 2 8 34
14 71 5 37 26 105 46 152 22 53 32 88 26 94 -6 6 -17 -1 -30 -19 -11 -15 -39
-36 -61 -47 -46 -22 -50 -41 -8 -38 22 2 25 -1 16 -17 -11 -21 -58 -60 -73
-60 -21 0 -1 133 30 201 30 66 62 104 49 60 -3 -11 -9 -30 -12 -41 -3 -11 -1
-20 4 -20 20 0 33 30 30 67 -3 41 -22 53 -50 31z"/>
<path d="M5123 5268 c-24 -31 -27 -42 -10 -35 14 5 17 0 17 -32 0 -63 -11 -99
-31 -104 -41 -11 -81 -117 -61 -163 10 -20 15 -22 37 -14 16 6 25 6 25 0 0 -6
11 -16 25 -22 30 -13 75 2 75 26 0 22 -17 28 -41 16 -20 -11 -21 -10 -15 27
18 122 27 242 19 273 -10 37 -25 48 -40 28z m-18 -247 c-8 -46 -35 -78 -35
-42 0 27 28 96 36 88 3 -3 3 -24 -1 -46z"/>
<path d="M4936 5039 c-30 -61 -34 -114 -10 -123 47 -18 87 40 82 119 -2 42 -6
50 -24 53 -17 2 -27 -8 -48 -49z m20 -77 c-14 -14 -14 -12 -3 24 10 33 13 35
15 15 2 -13 -3 -31 -12 -39z"/>
<path d="M5273 5003 c-7 -3 -13 -16 -13 -29 0 -28 34 -34 44 -7 8 19 -13 43
-31 36z"/>
<path d="M4717 4725 c-93 -34 -156 -106 -172 -198 -9 -48 6 -67 55 -67 49 0
191 51 312 111 l37 19 -25 -54 c-22 -49 -35 -95 -79 -286 -8 -36 -22 -135 -30
-220 -12 -121 -20 -158 -33 -168 -14 -10 -18 -9 -24 9 -5 11 -5 25 -2 31 9 15
-30 -8 -45 -26 -19 -22 -5 -64 24 -78 18 -8 32 -8 54 2 61 25 63 32 91 285 21
198 70 418 110 496 19 37 33 45 125 73 99 29 181 36 229 19 41 -15 76 -13 76
4 0 16 -88 63 -116 63 -44 0 -183 -27 -234 -45 -50 -17 -46 -15 -185 -81 -195
-92 -305 -130 -305 -106 0 5 7 29 16 55 19 56 88 121 146 139 21 6 37 16 35
22 -5 15 -19 16 -60 1z"/>
<path d="M5080 4454 c-8 -3 -21 -19 -27 -37 -65 -178 -74 -211 -80 -299 -5
-82 -3 -96 13 -116 23 -28 75 -36 103 -15 31 21 71 88 71 119 0 38 -27 27 -65
-26 -19 -27 -39 -45 -51 -45 -16 0 -19 9 -22 56 -3 48 1 60 27 92 31 39 95
222 89 254 -3 18 -29 25 -58 17z m9 -90 c-15 -57 -51 -155 -56 -151 -2 3 10
48 27 102 31 95 49 127 29 49z"/>
<path d="M5284 4443 c-9 -10 -29 -42 -43 -73 -22 -48 -26 -68 -26 -163 0 -97
2 -110 20 -123 11 -8 31 -14 45 -12 14 1 37 -6 51 -15 51 -34 110 5 138 91 11
32 11 46 3 54 -16 16 -38 -5 -62 -58 -11 -26 -26 -44 -35 -44 -15 0 -16 17
-13 159 3 145 1 161 -16 180 -23 26 -39 27 -62 4z m43 -95 c-14 -164 -20 -208
-33 -219 -29 -24 -37 1 -32 106 4 76 11 112 27 143 33 64 45 54 38 -30z"/>
<path d="M2017 4369 c7 -7 15 -10 18 -7 3 3 -2 9 -12 12 -14 6 -15 5 -6 -5z"/>
<path d="M5554 4152 c-6 -4 -17 -17 -23 -30 -11 -20 -10 -27 5 -43 9 -10 26
-19 36 -19 20 0 68 42 68 59 0 30 -58 52 -86 33z m44 -39 c-4 -22 -22 -20 -26
1 -2 10 3 16 13 16 10 0 15 -7 13 -17z"/>
<path d="M5160 3871 c-158 -69 -246 -132 -286 -206 -15 -28 -16 -36 -5 -49 17
-20 35 -21 27 -1 -11 29 86 111 193 165 56 27 103 50 107 50 3 0 -18 -27 -48
-59 -68 -75 -118 -172 -118 -227 0 -29 5 -44 16 -48 26 -10 46 -7 68 11 20 17
20 17 0 -7 -26 -31 -33 -75 -23 -143 13 -81 18 -97 34 -97 24 0 28 20 15 95
-14 82 -12 88 51 161 47 55 49 87 6 92 -18 2 -40 -5 -60 -20 -54 -41 -57 -41
-48 -11 13 45 76 136 141 205 60 64 70 84 48 106 -18 18 -47 14 -118 -17z"/>
<path d="M4560 3129 c0 -5 5 -7 10 -4 6 3 10 8 10 11 0 2 -4 4 -10 4 -5 0 -10
-5 -10 -11z"/>
<path d="M5020 2173 c0 -7 11 -36 24 -65 13 -29 32 -75 42 -103 11 -28 20 -43
22 -33 2 9 -9 47 -24 85 -29 73 -64 136 -64 116z"/>
<path d="M5670 2148 c0 -9 5 -20 10 -23 6 -3 10 -11 10 -16 0 -6 -5 -7 -12 -3
-7 5 -8 3 -4 -5 5 -7 11 -10 14 -7 3 3 11 1 17 -4 9 -8 14 -6 19 5 3 9 2 13
-4 10 -6 -3 -10 -3 -10 2 0 4 -9 19 -20 33 -15 20 -20 21 -20 8z"/>
<path d="M5716 2151 c-4 -5 -2 -12 3 -15 5 -4 12 -2 15 3 4 5 2 12 -3 15 -5 4
-12 2 -15 -3z"/>
<path d="M2190 1935 c0 -11 -14 -51 -30 -88 -16 -38 -23 -63 -15 -57 23 19 67
142 56 153 -8 8 -11 5 -11 -8z"/>
<path d="M1358 1703 c7 -3 16 -2 19 1 4 3 -2 6 -13 5 -11 0 -14 -3 -6 -6z"/>
<path d="M1278 1693 c6 -2 18 -2 25 0 6 3 1 5 -13 5 -14 0 -19 -2 -12 -5z"/>
<path d="M5536 1430 c8 -42 36 -100 41 -84 2 6 -8 36 -21 65 -23 47 -25 50
-20 19z"/>
<path d="M721 234 c0 -11 3 -14 6 -6 3 7 2 16 -1 19 -3 4 -6 -2 -5 -13z"/>
<path d="M711 194 c0 -11 3 -14 6 -6 3 7 2 16 -1 19 -3 4 -6 -2 -5 -13z"/>
</g>
</svg>
